# xmcd
#
# Track frame offsets:
#	150
#	20998
#	33895
#	48313
#	58442
#	75157
#	90614
#	102107
#
# Disc length: 1578 seconds
#
# Revision: 0
# Processed by: cddbd v1.5.2PL0 Copyright (c) Steve Scherf et al.
# Submitted via: EasyCDDAExtractor 10.0.6.1
#
DISCID=5c062808
DTITLE=Various Artist - Showcase Media Vol.10
DYEAR=1900
DGENRE=
TTITLE0=The Martins - Grace
TTITLE1=Common Bond - Favor My Savior
TTITLE2=Phil Cross - Grace and Glory
TTITLE3=LaVerne Tripp - He's Bigger Than That
TTITLE4=The McKeithens - I'll See You Over There
TTITLE5=Brad Hudson - Do You Believe
TTITLE6=The Scott Thomas Singers - Enough To Shout About
TTITLE7=The Mashburn Sisters - Somebody's Coming
EXTD=
EXTT0=
EXTT1=
EXTT2=
EXTT3=
EXTT4=
EXTT5=
EXTT6=
EXTT7=
PLAYORDER=
